<?xml version="1.0" encoding="utf-8"?>
<!-- Generator: Adobe Illustrator 16.0.3, SVG Export Plug-In . SVG Version: 6.00 Build 0)  -->
<!DOCTYPE svg PUBLIC "-//W3C//DTD SVG 1.1//EN" "http://www.w3.org/Graphics/SVG/1.1/DTD/svg11.dtd">
<svg version="1.1" id="Layer_2" xmlns="http://www.w3.org/2000/svg" xmlns:xlink="http://www.w3.org/1999/xlink" x="0px" y="0px"
	 width="600px" height="129.429px" viewBox="0 0 600 129.429" enable-background="new 0 0 600 129.429" xml:space="preserve">
<path fill="#16763C" d="M13.229,110.829h20.214v18.6h99.58v-15.514h94.807v15.514h339.54V98.481H476.09V4.997h83.207
	C555.495,1.875,550.627,0,545.321,0H22.048C9.871,0,0,9.871,0,22.048v107.381h13.229V110.829z M44.665,1.828h347.349v18.309
	c0-10.958,8.885-19.843,19.844-19.843s19.844,8.885,19.844,19.843c0,10.959-8.885,19.844-19.844,19.844
	c-10.959-0.001-19.844-8.885-19.844-19.844v19.652H44.665V1.828z M24.694,0.294c10.958,0,19.843,8.885,19.843,19.843
	c0,10.96-8.885,19.844-19.843,19.844c-10.96,0-19.844-8.884-19.844-19.844C4.851,9.179,13.734,0.294,24.694,0.294z"/>
<path d="M392.014,20.137V1.828H44.665v37.961h347.349V20.137z M55.226,36.138c-4.021,0-7.282-3.26-7.282-7.281
	c0-4.022,3.261-7.282,7.282-7.282s7.281,3.26,7.282,7.282C62.508,32.878,59.248,36.138,55.226,36.138z M55.226,19.381
	c-4.021,0-7.282-3.26-7.282-7.28c0-4.022,3.261-7.282,7.282-7.282s7.281,3.26,7.282,7.282
	C62.508,16.121,59.248,19.381,55.226,19.381z M72.352,36.508c-4.021,0-7.281-3.26-7.281-7.282c0-4.021,3.261-7.28,7.281-7.28
	c4.022,0,7.282,3.26,7.282,7.28C79.634,33.248,76.374,36.508,72.352,36.508z M72.352,19.381c-4.021,0-7.281-3.26-7.281-7.28
	c0-4.022,3.26-7.282,7.281-7.282s7.281,3.26,7.282,7.282C79.634,16.121,76.374,19.381,72.352,19.381z M89.479,36.508
	c-4.022,0-7.282-3.26-7.282-7.282c0-4.021,3.26-7.28,7.282-7.28c4.021,0,7.28,3.26,7.28,7.28
	C96.759,33.248,93.5,36.508,89.479,36.508z M89.479,19.381c-4.022,0-7.282-3.26-7.282-7.28c-0.001-4.022,3.259-7.282,7.281-7.282
	c4.021,0,7.281,3.26,7.281,7.282C96.759,16.121,93.5,19.381,89.479,19.381z M106.604,36.508c-4.022,0-7.282-3.26-7.282-7.282
	c0-4.021,3.26-7.28,7.282-7.28c4.021,0,7.28,3.26,7.28,7.28C113.885,33.248,110.625,36.508,106.604,36.508z M106.604,19.381
	c-4.022,0-7.282-3.26-7.282-7.28c-0.001-4.022,3.259-7.282,7.281-7.282c4.021,0,7.281,3.26,7.281,7.282
	C113.885,16.121,110.625,19.381,106.604,19.381z M123.73,36.508c-4.023,0-7.282-3.26-7.282-7.282c0-4.021,3.259-7.28,7.282-7.28
	c4.021,0,7.28,3.26,7.28,7.28C131.011,33.248,127.751,36.508,123.73,36.508z M123.73,19.381c-4.023,0-7.282-3.26-7.282-7.28
	c0-4.022,3.259-7.282,7.282-7.282c4.021,0,7.28,3.26,7.28,7.282C131.011,16.121,127.751,19.381,123.73,19.381z M140.855,36.508
	c-4.023,0-7.282-3.26-7.282-7.282c0-4.021,3.259-7.28,7.282-7.28c4.021,0,7.281,3.26,7.281,7.28
	C148.137,33.248,144.876,36.508,140.855,36.508z M140.855,19.381c-4.023,0-7.282-3.26-7.282-7.28c0-4.022,3.259-7.282,7.282-7.282
	c4.021,0,7.281,3.26,7.281,7.282C148.137,16.121,144.876,19.381,140.855,19.381z M157.981,36.508c-4.023,0-7.282-3.26-7.282-7.282
	c0-4.021,3.259-7.28,7.282-7.28c4.021,0,7.28,3.26,7.28,7.28C165.262,33.248,162.002,36.508,157.981,36.508z M157.981,19.381
	c-4.023,0-7.282-3.26-7.282-7.28c0-4.022,3.259-7.282,7.282-7.282c4.021,0,7.28,3.26,7.28,7.282
	C165.262,16.121,162.002,19.381,157.981,19.381z M175.106,36.508c-4.022,0-7.282-3.26-7.282-7.282c0-4.021,3.26-7.28,7.282-7.28
	c4.021,0,7.281,3.26,7.281,7.28C182.388,33.248,179.128,36.508,175.106,36.508z M175.106,19.381c-4.022,0-7.282-3.26-7.282-7.28
	c0-4.022,3.26-7.282,7.282-7.282c4.021,0,7.281,3.26,7.281,7.282C182.388,16.121,179.128,19.381,175.106,19.381z M192.232,36.508
	c-4.023,0-7.282-3.26-7.282-7.282c0-4.021,3.259-7.28,7.282-7.28c4.021,0,7.28,3.26,7.28,7.28
	C199.513,33.248,196.253,36.508,192.232,36.508z M192.232,19.381c-4.023,0-7.282-3.26-7.282-7.28c0-4.022,3.259-7.282,7.282-7.282
	c4.021,0,7.28,3.26,7.28,7.282C199.513,16.121,196.253,19.381,192.232,19.381z M209.357,36.508c-4.021,0-7.282-3.26-7.282-7.282
	c0-4.021,3.262-7.28,7.282-7.28c4.021,0,7.282,3.26,7.282,7.28C216.64,33.248,213.379,36.508,209.357,36.508z M209.357,19.381
	c-4.021,0-7.282-3.26-7.282-7.28c0-4.022,3.262-7.282,7.282-7.282c4.021,0,7.282,3.26,7.282,7.282
	C216.64,16.121,213.379,19.381,209.357,19.381z M226.483,36.508c-4.021,0-7.282-3.26-7.282-7.282c0-4.021,3.261-7.28,7.282-7.28
	c4.021,0,7.282,3.26,7.282,7.28C233.766,33.248,230.504,36.508,226.483,36.508z M226.483,19.381c-4.021,0-7.282-3.26-7.282-7.28
	c0-4.022,3.261-7.282,7.282-7.282c4.021,0,7.282,3.26,7.282,7.282C233.766,16.121,230.504,19.381,226.483,19.381z M243.609,36.508
	c-4.021,0-7.282-3.26-7.282-7.282c0-4.021,3.261-7.28,7.282-7.28c4.021,0,7.281,3.26,7.281,7.28
	C250.891,33.248,247.63,36.508,243.609,36.508z M243.609,19.381c-4.021,0-7.282-3.26-7.282-7.28c0-4.022,3.261-7.282,7.282-7.282
	c4.021,0,7.281,3.26,7.281,7.282C250.891,16.121,247.63,19.381,243.609,19.381z M260.738,36.508c-4.025,0-7.282-3.26-7.282-7.282
	c0-4.021,3.257-7.28,7.282-7.28c4.021,0,7.279,3.26,7.279,7.28C268.017,33.248,264.759,36.508,260.738,36.508z M260.738,19.381
	c-4.025,0-7.282-3.26-7.282-7.28c0-4.022,3.257-7.282,7.282-7.282c4.021,0,7.279,3.26,7.279,7.282
	C268.017,16.121,264.759,19.381,260.738,19.381z M277.854,36.508c-4.021,0-7.282-3.26-7.282-7.282c0-4.021,3.261-7.28,7.282-7.28
	c4.021,0,7.281,3.26,7.281,7.28C285.135,33.248,281.875,36.508,277.854,36.508z M277.854,19.381c-4.021,0-7.282-3.26-7.282-7.28
	c0-4.022,3.261-7.282,7.282-7.282c4.021,0,7.281,3.26,7.281,7.282C285.135,16.121,281.875,19.381,277.854,19.381z M294.979,36.508
	c-4.021,0-7.282-3.26-7.282-7.282c0-4.021,3.262-7.28,7.282-7.28s7.283,3.26,7.283,7.28C302.262,33.248,299,36.508,294.979,36.508z
	 M294.979,19.381c-4.021,0-7.282-3.26-7.282-7.28c0-4.022,3.262-7.282,7.282-7.282s7.283,3.26,7.283,7.282
	C302.262,16.121,299,19.381,294.979,19.381z M312.104,36.508c-4.02,0-7.281-3.26-7.281-7.282c0-4.021,3.262-7.28,7.281-7.28
	c4.021,0,7.283,3.26,7.283,7.281S316.125,36.508,312.104,36.508z M312.104,19.381c-4.02,0-7.281-3.26-7.281-7.28
	c0-4.022,3.262-7.282,7.281-7.282c4.021,0,7.283,3.26,7.283,7.282C319.387,16.121,316.125,19.381,312.104,19.381z M329.229,36.508
	c-4.02,0-7.281-3.26-7.281-7.281s3.262-7.281,7.281-7.281c4.021,0,7.283,3.26,7.283,7.281S333.25,36.508,329.229,36.508z
	 M329.229,19.381c-4.02,0-7.281-3.26-7.281-7.28c0-4.022,3.262-7.282,7.281-7.282c4.021,0,7.283,3.26,7.283,7.282
	C336.512,16.121,333.25,19.381,329.229,19.381z M346.36,36.508c-4.025,0-7.287-3.26-7.287-7.281s3.262-7.281,7.287-7.281
	c4.016,0,7.277,3.26,7.277,7.281S350.375,36.508,346.36,36.508z M346.36,19.381c-4.025,0-7.287-3.26-7.287-7.28
	c0-4.022,3.262-7.282,7.287-7.282c4.016,0,7.277,3.26,7.277,7.282C353.637,16.121,350.375,19.381,346.36,19.381z M363.485,36.508
	c-4.021,0-7.283-3.26-7.283-7.281s3.262-7.281,7.283-7.281s7.283,3.26,7.283,7.281S367.506,36.508,363.485,36.508z M363.485,19.381
	c-4.021,0-7.283-3.26-7.283-7.28c0-4.022,3.262-7.282,7.283-7.282s7.283,3.26,7.283,7.282
	C370.768,16.121,367.506,19.381,363.485,19.381z M380.61,36.508c-4.021,0-7.283-3.26-7.283-7.281s3.262-7.281,7.283-7.281
	s7.283,3.26,7.283,7.281S384.631,36.508,380.61,36.508z M380.61,19.381c-4.021,0-7.283-3.26-7.283-7.28
	c0-4.022,3.262-7.282,7.283-7.282s7.283,3.26,7.283,7.282C387.893,16.121,384.631,19.381,380.61,19.381z"/>
<path fill="#DBC877" d="M411.858,39.981c10.959,0,19.844-8.885,19.844-19.844c0-10.958-8.885-19.843-19.844-19.843
	s-19.844,8.885-19.844,19.843C392.014,31.097,400.899,39.98,411.858,39.981z M411.858,11.388c4.834,0,8.75,3.917,8.75,8.75
	c0,4.833-3.916,8.75-8.75,8.75s-8.75-3.917-8.75-8.75C403.108,15.305,407.024,11.388,411.858,11.388z"/>
<circle fill="#FFFFFF" cx="411.858" cy="20.138" r="8.75"/>
<path fill="#DBC877" d="M24.694,39.98c10.958,0,19.843-8.884,19.843-19.844c0-10.958-8.885-19.843-19.843-19.843
	c-10.96,0-19.844,8.885-19.844,19.843C4.851,31.097,13.734,39.98,24.694,39.98z M24.694,11.388c4.833,0,8.749,3.917,8.749,8.749
	c0,4.833-3.916,8.751-8.749,8.751c-4.834,0-8.75-3.918-8.75-8.751C15.944,15.305,19.86,11.388,24.694,11.388z"/>
<circle fill="#FFFFFF" cx="24.694" cy="20.138" r="8.75"/>
<rect x="133.023" y="113.915" fill="#3F403F" width="94.807" height="15.514"/>
<path fill="#CBBAB3" d="M476.09,98.481h91.279H600V4.997h-40.703H476.09V98.481z M585.401,25.607l-32.096-4.78
	c-1.359-0.203-2.473-1.218-2.473-2.257c0-1.039,1.113-1.722,2.473-1.52l36.506,5.438c1.359,0.203,2.473,1.493,2.473,2.868v10.654
	c0,1.375-1.113,2.666-2.473,2.869l-36.506,5.436c-1.359,0.203-2.473-0.658-2.473-1.913s1.117-2.424,2.48-2.599l32.082-4.094
	c1.363-0.175,2.479-1.442,2.479-2.817v-4.417C587.874,27.101,586.762,25.81,585.401,25.607z M585.401,68.822l-32.096-4.781
	c-1.359-0.202-2.473-1.218-2.473-2.256c0-1.038,1.113-1.722,2.473-1.52l36.506,5.437c1.359,0.202,2.473,1.493,2.473,2.868v10.654
	c0,1.376-1.113,2.666-2.473,2.869l-36.506,5.437c-1.359,0.203-2.473-0.658-2.473-1.913s1.117-2.424,2.48-2.599l32.082-4.095
	c1.363-0.175,2.479-1.441,2.479-2.816v-4.418C587.874,70.314,586.762,69.024,585.401,68.822z"/>
<path d="M585.395,78.924l-32.082,4.095c-1.363,0.175-2.48,1.344-2.48,2.599s1.113,2.116,2.473,1.913l36.506-5.437
	c1.359-0.203,2.473-1.493,2.473-2.869V68.57c0-1.375-1.113-2.666-2.473-2.868l-36.506-5.437c-1.359-0.203-2.473,0.481-2.473,1.52
	c0,1.039,1.113,2.054,2.473,2.256l32.096,4.781c1.361,0.202,2.473,1.492,2.473,2.867v4.418
	C587.874,77.482,586.758,78.749,585.395,78.924z"/>
<path d="M585.395,35.71l-32.082,4.094c-1.363,0.175-2.48,1.344-2.48,2.599s1.113,2.116,2.473,1.913l36.506-5.436
	c1.359-0.203,2.473-1.494,2.473-2.869V25.356c0-1.375-1.113-2.666-2.473-2.868l-36.506-5.438c-1.359-0.202-2.473,0.481-2.473,1.52
	c0,1.039,1.113,2.054,2.473,2.257l32.096,4.78c1.361,0.203,2.473,1.493,2.473,2.868v4.417
	C587.874,34.268,586.758,35.535,585.395,35.71z"/>
<rect x="13.229" y="110.829" fill="#3D3D3D" width="20.214" height="18.6"/>
<path fill="#2AAFE5" d="M72.352,21.945c-4.021,0-7.281,3.26-7.281,7.28c0,4.022,3.261,7.282,7.281,7.282
	c4.022,0,7.282-3.26,7.282-7.282C79.634,25.205,76.374,21.945,72.352,21.945z M72.35,31.727c-1.382,0-2.501-1.119-2.501-2.501
	c0-1.38,1.119-2.499,2.501-2.499c1.38,0,2.499,1.119,2.499,2.499C74.849,30.607,73.729,31.727,72.35,31.727z"/>
<circle fill="#EEAB1F" cx="72.35" cy="29.227" r="2.5"/>
<path fill="#2AAFE5" d="M89.479,21.945c-4.022,0-7.282,3.26-7.282,7.28c0,4.022,3.26,7.282,7.282,7.282
	c4.021,0,7.28-3.26,7.28-7.282C96.759,25.205,93.5,21.945,89.479,21.945z M89.476,31.727c-1.382,0-2.501-1.119-2.501-2.501
	c0-1.38,1.119-2.499,2.501-2.499c1.379,0,2.499,1.119,2.499,2.499C91.975,30.607,90.854,31.727,89.476,31.727z"/>
<circle fill="#EEAB1F" cx="89.476" cy="29.227" r="2.5"/>
<path fill="#161616" d="M106.604,21.945c-4.022,0-7.282,3.26-7.282,7.28c0,4.022,3.26,7.282,7.282,7.282
	c4.021,0,7.28-3.26,7.28-7.282C113.885,25.205,110.625,21.945,106.604,21.945z M106.602,31.727c-1.383,0-2.502-1.119-2.502-2.501
	c0-1.38,1.119-2.499,2.502-2.499c1.379,0,2.498,1.119,2.498,2.499C109.1,30.607,107.98,31.727,106.602,31.727z"/>
<path fill="#EEAB1F" d="M106.602,26.727c-1.383,0-2.502,1.119-2.502,2.499c0,1.382,1.119,2.501,2.502,2.501
	c1.379,0,2.498-1.119,2.498-2.501C109.1,27.846,107.98,26.727,106.602,26.727z"/>
<path fill="#161616" d="M123.73,21.945c-4.023,0-7.282,3.26-7.282,7.28c0,4.022,3.259,7.282,7.282,7.282
	c4.021,0,7.28-3.26,7.28-7.282C131.011,25.205,127.751,21.945,123.73,21.945z M123.727,31.727c-1.383,0-2.501-1.119-2.501-2.501
	c0-1.38,1.118-2.499,2.501-2.499c1.38,0,2.499,1.119,2.499,2.499C126.226,30.607,125.106,31.727,123.727,31.727z"/>
<circle fill="#EEAB1F" cx="123.727" cy="29.227" r="2.5"/>
<path fill="#161616" d="M140.855,21.945c-4.023,0-7.282,3.26-7.282,7.28c0,4.022,3.259,7.282,7.282,7.282
	c4.021,0,7.281-3.26,7.281-7.282C148.137,25.205,144.876,21.945,140.855,21.945z M140.853,31.727c-1.382,0-2.501-1.119-2.501-2.501
	c0-1.38,1.119-2.499,2.501-2.499c1.38,0,2.499,1.119,2.499,2.499C143.352,30.607,142.232,31.727,140.853,31.727z"/>
<circle fill="#EEAB1F" cx="140.853" cy="29.227" r="2.5"/>
<path fill="#161616" d="M157.981,21.945c-4.023,0-7.282,3.26-7.282,7.28c0,4.022,3.259,7.282,7.282,7.282
	c4.021,0,7.28-3.26,7.28-7.282C165.262,25.205,162.002,21.945,157.981,21.945z M157.979,31.727c-1.384,0-2.502-1.119-2.502-2.501
	c0-1.38,1.118-2.499,2.502-2.499c1.379,0,2.498,1.119,2.498,2.499C160.477,30.607,159.357,31.727,157.979,31.727z"/>
<path fill="#EEAB1F" d="M157.979,26.727c-1.384,0-2.502,1.119-2.502,2.499c0,1.382,1.118,2.501,2.502,2.501
	c1.379,0,2.498-1.119,2.498-2.501C160.477,27.846,159.357,26.727,157.979,26.727z"/>
<path fill="#161616" d="M175.106,21.945c-4.022,0-7.282,3.26-7.282,7.28c0,4.022,3.26,7.282,7.282,7.282
	c4.021,0,7.281-3.26,7.281-7.282C182.388,25.205,179.128,21.945,175.106,21.945z M175.104,31.727c-1.382,0-2.501-1.119-2.501-2.501
	c0-1.38,1.119-2.498,2.501-2.498c1.38,0,2.498,1.118,2.498,2.498C177.602,30.607,176.483,31.727,175.104,31.727z"/>
<circle fill="#EEAB1F" cx="175.104" cy="29.227" r="2.5"/>
<path fill="#161616" d="M192.232,21.945c-4.023,0-7.282,3.26-7.282,7.28c0,4.022,3.259,7.282,7.282,7.282
	c4.021,0,7.28-3.26,7.28-7.282C199.513,25.205,196.253,21.945,192.232,21.945z M192.229,31.727c-1.383,0-2.502-1.119-2.502-2.501
	c0-1.38,1.119-2.498,2.502-2.498c1.379,0,2.498,1.118,2.498,2.498C194.728,30.607,193.608,31.727,192.229,31.727z"/>
<path fill="#EEAB1F" d="M192.229,26.728c-1.383,0-2.502,1.118-2.502,2.498c0,1.382,1.119,2.501,2.502,2.501
	c1.379,0,2.498-1.119,2.498-2.501C194.728,27.846,193.608,26.728,192.229,26.728z"/>
<path fill="#161616" d="M209.357,21.945c-4.021,0-7.282,3.26-7.282,7.28c0,4.022,3.262,7.282,7.282,7.282
	c4.021,0,7.282-3.26,7.282-7.282C216.64,25.205,213.379,21.945,209.357,21.945z M209.354,31.726c-1.382,0-2.5-1.119-2.5-2.5
	c0-1.379,1.118-2.497,2.5-2.497c1.379,0,2.499,1.118,2.499,2.497C211.854,30.606,210.733,31.726,209.354,31.726z"/>
<circle fill="#EEAB1F" cx="209.354" cy="29.227" r="2.499"/>
<path fill="#161616" d="M226.483,21.945c-4.021,0-7.282,3.26-7.282,7.28c0,4.022,3.261,7.282,7.282,7.282
	c4.021,0,7.282-3.26,7.282-7.282C233.766,25.205,230.504,21.945,226.483,21.945z M226.479,31.728c-1.383,0-2.497-1.12-2.497-2.502
	c0-1.381,1.114-2.5,2.497-2.5s2.502,1.119,2.502,2.5C228.981,30.607,227.862,31.728,226.479,31.728z"/>
<path fill="#EEAB1F" d="M226.479,26.726c-1.383,0-2.497,1.119-2.497,2.5c0,1.382,1.114,2.502,2.497,2.502s2.502-1.12,2.502-2.502
	C228.981,27.845,227.862,26.726,226.479,26.726z"/>
<path fill="#161616" d="M243.609,21.945c-4.021,0-7.282,3.26-7.282,7.28c0,4.022,3.261,7.282,7.282,7.282
	c4.021,0,7.281-3.26,7.281-7.282C250.891,25.205,247.63,21.945,243.609,21.945z M243.609,31.728c-1.383,0-2.502-1.12-2.502-2.502
	c0-1.381,1.119-2.5,2.502-2.5c1.378,0,2.498,1.119,2.498,2.5C246.107,30.607,244.987,31.728,243.609,31.728z"/>
<path fill="#EEAB1F" d="M243.609,26.726c-1.383,0-2.502,1.119-2.502,2.5c0,1.382,1.119,2.502,2.502,2.502
	c1.378,0,2.498-1.12,2.498-2.502C246.107,27.845,244.987,26.726,243.609,26.726z"/>
<path fill="#161616" d="M260.738,21.945c-4.025,0-7.282,3.26-7.282,7.28c0,4.022,3.257,7.282,7.282,7.282
	c4.021,0,7.279-3.26,7.279-7.282C268.017,25.205,264.759,21.945,260.738,21.945z M260.735,31.728c-1.382,0-2.501-1.12-2.501-2.502
	c0-1.381,1.12-2.5,2.501-2.5c1.379,0,2.498,1.119,2.498,2.5C263.233,30.607,262.114,31.728,260.735,31.728z"/>
<circle fill="#EEAB1F" cx="260.735" cy="29.227" r="2.501"/>
<path fill="#161616" d="M55.226,4.818c-4.021,0-7.282,3.26-7.282,7.282c0,4.021,3.262,7.28,7.282,7.28
	c4.022,0,7.282-3.26,7.282-7.28C62.507,8.078,59.247,4.818,55.226,4.818z M55.225,14.6c-1.383,0-2.501-1.12-2.501-2.499
	c0-1.38,1.118-2.501,2.5-2.501c1.379,0,2.5,1.121,2.5,2.501C57.724,13.479,56.604,14.6,55.225,14.6z"/>
<circle fill="#EEAB1F" cx="55.224" cy="12.1" r="2.5"/>
<path fill="#161616" d="M55.226,21.574c-4.021,0-7.282,3.26-7.282,7.282c0,4.021,3.262,7.281,7.282,7.281
	c4.022,0,7.282-3.26,7.282-7.281C62.507,24.834,59.247,21.574,55.226,21.574z M55.225,31.356c-1.383,0-2.501-1.12-2.501-2.499
	c0-1.38,1.118-2.501,2.5-2.501c1.379,0,2.5,1.121,2.5,2.501C57.724,30.236,56.604,31.356,55.225,31.356z"/>
<circle fill="#EEAB1F" cx="55.224" cy="28.856" r="2.5"/>
<path fill="#161616" d="M72.352,4.818c-4.021,0-7.281,3.26-7.281,7.282c0,4.021,3.261,7.28,7.281,7.28
	c4.022,0,7.282-3.26,7.282-7.28C79.633,8.078,76.373,4.818,72.352,4.818z M72.35,14.6c-1.382,0-2.501-1.12-2.501-2.499
	c0-1.38,1.119-2.501,2.5-2.501c1.38,0,2.5,1.121,2.5,2.501C74.849,13.479,73.729,14.6,72.35,14.6z"/>
<circle fill="#EEAB1F" cx="72.349" cy="12.1" r="2.5"/>
<path fill="#161616" d="M89.478,4.818c-4.022,0-7.282,3.26-7.281,7.282c0,4.021,3.26,7.28,7.282,7.28c4.021,0,7.28-3.26,7.28-7.28
	C96.759,8.078,93.498,4.818,89.478,4.818z M89.476,14.6c-1.382,0-2.501-1.12-2.501-2.499c0-1.38,1.119-2.501,2.5-2.501
	c1.379,0,2.5,1.121,2.5,2.501C91.975,13.479,90.854,14.6,89.476,14.6z"/>
<circle fill="#EEAB1F" cx="89.475" cy="12.1" r="2.5"/>
<path fill="#161616" d="M106.604,4.818c-4.022,0-7.282,3.26-7.281,7.282c0,4.021,3.26,7.28,7.282,7.28c4.021,0,7.28-3.26,7.28-7.28
	C113.885,8.078,110.625,4.818,106.604,4.818z M106.602,14.6c-1.383,0-2.502-1.12-2.502-2.499c0-1.38,1.119-2.501,2.5-2.501
	s2.5,1.121,2.5,2.501C109.1,13.479,107.98,14.6,106.602,14.6z"/>
<circle fill="#EEAB1F" cx="106.601" cy="12.1" r="2.5"/>
<path fill="#161616" d="M123.73,4.818c-4.023,0-7.282,3.26-7.282,7.282c0,4.021,3.259,7.28,7.282,7.28c4.021,0,7.28-3.26,7.28-7.28
	C131.011,8.078,127.751,4.818,123.73,4.818z M123.727,14.6c-1.383,0-2.501-1.12-2.501-2.499c0-1.38,1.118-2.501,2.501-2.501
	c1.38,0,2.499,1.121,2.499,2.501C126.226,13.479,125.106,14.6,123.727,14.6z"/>
<circle fill="#EEAB1F" cx="123.727" cy="12.1" r="2.5"/>
<path fill="#161616" d="M140.855,4.818c-4.023,0-7.282,3.26-7.282,7.282c0,4.021,3.259,7.28,7.282,7.28
	c4.021,0,7.281-3.26,7.281-7.28C148.137,8.078,144.876,4.818,140.855,4.818z M140.853,14.6c-1.382,0-2.501-1.12-2.501-2.499
	c0-1.38,1.119-2.501,2.501-2.501c1.38,0,2.499,1.121,2.499,2.501C143.352,13.479,142.232,14.6,140.853,14.6z"/>
<circle fill="#EEAB1F" cx="140.853" cy="12.1" r="2.5"/>
<path fill="#161616" d="M157.981,4.818c-4.023,0-7.282,3.26-7.282,7.282c0,4.021,3.259,7.28,7.282,7.28c4.021,0,7.28-3.26,7.28-7.28
	C165.262,8.078,162.002,4.818,157.981,4.818z M157.979,14.6c-1.384,0-2.502-1.12-2.502-2.499c0-1.38,1.118-2.501,2.502-2.501
	c1.379,0,2.498,1.121,2.498,2.501C160.477,13.479,159.357,14.6,157.979,14.6z"/>
<path fill="#EEAB1F" d="M157.979,9.6c-1.384,0-2.502,1.121-2.502,2.501c0,1.379,1.118,2.499,2.502,2.499
	c1.379,0,2.498-1.12,2.498-2.499C160.477,10.721,159.357,9.6,157.979,9.6z"/>
<path fill="#161616" d="M175.106,4.818c-4.022,0-7.282,3.26-7.282,7.282c0,4.021,3.26,7.28,7.282,7.28
	c4.021,0,7.281-3.26,7.281-7.28C182.388,8.078,179.128,4.818,175.106,4.818z M175.104,14.6c-1.382,0-2.501-1.12-2.501-2.499
	c0-1.38,1.119-2.501,2.501-2.501c1.38,0,2.498,1.121,2.498,2.501C177.602,13.479,176.483,14.6,175.104,14.6z"/>
<circle fill="#EEAB1F" cx="175.104" cy="12.1" r="2.5"/>
<path fill="#161616" d="M192.232,4.818c-4.023,0-7.282,3.26-7.282,7.282c0,4.021,3.259,7.28,7.282,7.28c4.021,0,7.28-3.26,7.28-7.28
	C199.513,8.078,196.253,4.818,192.232,4.818z M192.229,14.6c-1.383,0-2.502-1.12-2.502-2.499c0-1.38,1.119-2.501,2.502-2.501
	c1.379,0,2.498,1.121,2.498,2.501C194.728,13.479,193.608,14.6,192.229,14.6z"/>
<path fill="#EEAB1F" d="M192.229,9.6c-1.383,0-2.502,1.121-2.502,2.501c0,1.379,1.119,2.499,2.502,2.499
	c1.379,0,2.498-1.12,2.498-2.499C194.728,10.721,193.608,9.6,192.229,9.6z"/>
<path fill="#161616" d="M209.357,4.818c-4.021,0-7.282,3.26-7.282,7.282c0,4.021,3.262,7.28,7.282,7.28
	c4.021,0,7.282-3.26,7.282-7.28C216.64,8.078,213.379,4.818,209.357,4.818z M209.354,14.598c-1.382,0-2.5-1.118-2.5-2.497
	s1.118-2.499,2.5-2.499c1.379,0,2.499,1.12,2.499,2.499S210.733,14.598,209.354,14.598z"/>
<circle fill="#EEAB1F" cx="209.354" cy="12.1" r="2.498"/>
<path fill="#161616" d="M226.483,4.818c-4.021,0-7.282,3.26-7.282,7.282c0,4.021,3.261,7.28,7.282,7.28
	c4.021,0,7.282-3.26,7.282-7.28C233.766,8.078,230.504,4.818,226.483,4.818z M226.479,14.601c-1.383,0-2.497-1.12-2.497-2.5
	s1.114-2.502,2.497-2.502s2.502,1.122,2.502,2.502S227.862,14.601,226.479,14.601z"/>
<path fill="#EEAB1F" d="M226.479,9.599c-1.383,0-2.497,1.122-2.497,2.502s1.114,2.5,2.497,2.5s2.502-1.12,2.502-2.5
	S227.862,9.599,226.479,9.599z"/>
<path fill="#161616" d="M243.609,4.818c-4.021,0-7.282,3.26-7.282,7.282c0,4.021,3.261,7.28,7.282,7.28
	c4.021,0,7.281-3.26,7.281-7.28C250.891,8.078,247.63,4.818,243.609,4.818z M243.609,14.601c-1.383,0-2.502-1.12-2.502-2.5
	s1.119-2.502,2.502-2.502c1.378,0,2.498,1.122,2.498,2.502S244.987,14.601,243.609,14.601z"/>
<path fill="#EEAB1F" d="M243.609,9.599c-1.383,0-2.502,1.122-2.502,2.502s1.119,2.5,2.502,2.5c1.378,0,2.498-1.12,2.498-2.5
	S244.987,9.599,243.609,9.599z"/>
<path fill="#161616" d="M260.738,4.818c-4.025,0-7.282,3.26-7.282,7.282c0,4.021,3.257,7.28,7.282,7.28
	c4.021,0,7.279-3.26,7.279-7.28C268.017,8.078,264.759,4.818,260.738,4.818z M260.735,14.601c-1.382,0-2.501-1.12-2.501-2.5
	s1.12-2.502,2.501-2.502c1.379,0,2.498,1.122,2.498,2.502S262.114,14.601,260.735,14.601z"/>
<circle fill="#EEAB1F" cx="260.735" cy="12.1" r="2.501"/>
<path fill="#161616" d="M277.854,21.945c-4.021,0-7.282,3.26-7.282,7.28c0,4.022,3.261,7.282,7.282,7.282
	c4.021,0,7.281-3.26,7.281-7.282C285.135,25.205,281.875,21.945,277.854,21.945z M277.85,31.726c-1.377,0-2.5-1.119-2.5-2.5
	c0-1.379,1.123-2.497,2.5-2.497c1.382,0,2.499,1.118,2.499,2.497C280.349,30.606,279.232,31.726,277.85,31.726z"/>
<path fill="#EEAB1F" d="M277.85,26.729c-1.377,0-2.5,1.118-2.5,2.497c0,1.381,1.123,2.5,2.5,2.5c1.382,0,2.499-1.119,2.499-2.5
	C280.349,27.847,279.232,26.729,277.85,26.729z"/>
<path fill="#161616" d="M294.979,21.945c-4.021,0-7.282,3.26-7.282,7.28c0,4.022,3.262,7.282,7.282,7.282s7.283-3.26,7.283-7.282
	C302.262,25.205,299,21.945,294.979,21.945z M294.976,31.726c-1.382,0-2.501-1.119-2.501-2.5c0-1.379,1.119-2.497,2.501-2.497
	c1.381,0,2.499,1.118,2.499,2.497C297.475,30.606,296.357,31.726,294.976,31.726z"/>
<circle fill="#EEAB1F" cx="294.976" cy="29.227" r="2.499"/>
<path fill="#161616" d="M312.104,21.945c-4.02,0-7.281,3.26-7.281,7.28c0,4.022,3.262,7.282,7.281,7.282
	c4.021,0,7.283-3.26,7.283-7.281S316.125,21.945,312.104,21.945z M312.102,31.726c-1.383,0-2.502-1.119-2.502-2.5
	c0-1.379,1.119-2.497,2.502-2.497c1.381,0,2.498,1.118,2.498,2.497C314.6,30.606,313.483,31.726,312.102,31.726z"/>
<circle fill="#EEAB1F" cx="312.102" cy="29.227" r="2.499"/>
<path fill="#161616" d="M329.229,21.945c-4.02,0-7.281,3.26-7.281,7.281s3.262,7.281,7.281,7.281c4.021,0,7.283-3.26,7.283-7.281
	S333.25,21.945,329.229,21.945z M329.225,31.729c-1.383,0-2.498-1.12-2.498-2.503c0-1.38,1.115-2.499,2.498-2.499
	s2.504,1.119,2.504,2.499C331.729,30.608,330.608,31.729,329.225,31.729z"/>
<path fill="#EEAB1F" d="M329.225,26.727c-1.383,0-2.498,1.119-2.498,2.499c0,1.383,1.115,2.503,2.498,2.503s2.504-1.12,2.504-2.503
	C331.729,27.846,330.608,26.727,329.225,26.727z"/>
<path fill="#161616" d="M346.36,21.945c-4.025,0-7.287,3.26-7.287,7.281s3.262,7.281,7.287,7.281c4.016,0,7.277-3.26,7.277-7.281
	S350.375,21.945,346.36,21.945z M346.356,31.729c-1.381,0-2.504-1.12-2.504-2.503c0-1.38,1.123-2.499,2.504-2.499
	c1.379,0,2.498,1.119,2.498,2.499C348.854,30.608,347.735,31.729,346.356,31.729z"/>
<path fill="#EEAB1F" d="M346.356,26.727c-1.381,0-2.504,1.119-2.504,2.499c0,1.383,1.123,2.503,2.504,2.503
	c1.379,0,2.498-1.12,2.498-2.503C348.854,27.846,347.735,26.727,346.356,26.727z"/>
<path fill="#161616" d="M363.485,21.945c-4.021,0-7.283,3.26-7.283,7.281s3.262,7.281,7.283,7.281s7.283-3.26,7.283-7.281
	S367.506,21.945,363.485,21.945z M363.481,31.726c-1.381,0-2.5-1.119-2.5-2.5c0-1.379,1.119-2.496,2.5-2.496
	c1.377,0,2.5,1.117,2.5,2.496C365.981,30.606,364.858,31.726,363.481,31.726z"/>
<path fill="#EEAB1F" d="M363.481,26.729c-1.381,0-2.5,1.117-2.5,2.496c0,1.381,1.119,2.5,2.5,2.5c1.377,0,2.5-1.119,2.5-2.5
	C365.981,27.847,364.858,26.729,363.481,26.729z"/>
<path fill="#161616" d="M380.61,21.945c-4.021,0-7.283,3.26-7.283,7.281s3.262,7.281,7.283,7.281s7.283-3.26,7.283-7.281
	S384.631,21.945,380.61,21.945z M380.606,31.729c-1.383,0-2.498-1.12-2.498-2.503c0-1.38,1.115-2.5,2.498-2.5s2.502,1.12,2.502,2.5
	C383.108,30.608,381.989,31.729,380.606,31.729z"/>
<path fill="#EEAB1F" d="M380.606,26.726c-1.383,0-2.498,1.12-2.498,2.5c0,1.383,1.115,2.503,2.498,2.503s2.502-1.12,2.502-2.503
	C383.108,27.846,381.989,26.726,380.606,26.726z"/>
<path fill="#161616" d="M277.854,4.818c-4.021,0-7.282,3.26-7.282,7.282c0,4.021,3.261,7.28,7.282,7.28
	c4.021,0,7.281-3.26,7.281-7.28C285.135,8.078,281.875,4.818,277.854,4.818z M277.85,14.598c-1.377,0-2.5-1.118-2.5-2.497
	s1.123-2.499,2.5-2.499c1.382,0,2.499,1.12,2.499,2.499S279.232,14.598,277.85,14.598z"/>
<path fill="#EEAB1F" d="M277.85,9.602c-1.377,0-2.5,1.12-2.5,2.499s1.123,2.497,2.5,2.497c1.382,0,2.499-1.118,2.499-2.497
	S279.232,9.602,277.85,9.602z"/>
<path fill="#161616" d="M294.979,4.818c-4.021,0-7.282,3.26-7.282,7.282c0,4.021,3.262,7.28,7.282,7.28s7.283-3.26,7.283-7.28
	C302.262,8.078,299,4.818,294.979,4.818z M294.976,14.598c-1.382,0-2.501-1.118-2.501-2.497s1.119-2.499,2.501-2.499
	c1.381,0,2.499,1.12,2.499,2.499S296.357,14.598,294.976,14.598z"/>
<circle fill="#EEAB1F" cx="294.976" cy="12.1" r="2.498"/>
<path fill="#161616" d="M312.104,4.818c-4.02,0-7.281,3.26-7.281,7.282c0,4.021,3.262,7.28,7.281,7.28
	c4.021,0,7.283-3.26,7.283-7.28C319.387,8.078,316.125,4.818,312.104,4.818z M312.102,14.598c-1.383,0-2.502-1.118-2.502-2.497
	s1.119-2.499,2.502-2.499c1.381,0,2.498,1.12,2.498,2.499S313.483,14.598,312.102,14.598z"/>
<circle fill="#EEAB1F" cx="312.102" cy="12.1" r="2.498"/>
<path fill="#161616" d="M329.229,4.818c-4.02,0-7.281,3.26-7.281,7.282c0,4.021,3.262,7.28,7.281,7.28
	c4.021,0,7.283-3.26,7.283-7.28C336.512,8.078,333.25,4.818,329.229,4.818z M329.225,14.601c-1.383,0-2.498-1.12-2.498-2.5
	s1.115-2.502,2.498-2.502s2.504,1.122,2.504,2.502S330.608,14.601,329.225,14.601z"/>
<path fill="#EEAB1F" d="M329.225,9.599c-1.383,0-2.498,1.122-2.498,2.502s1.115,2.5,2.498,2.5s2.504-1.12,2.504-2.5
	S330.608,9.599,329.225,9.599z"/>
<path fill="#161616" d="M346.36,4.818c-4.025,0-7.287,3.26-7.287,7.282c0,4.021,3.262,7.28,7.287,7.28
	c4.016,0,7.277-3.26,7.277-7.28C353.637,8.078,350.375,4.818,346.36,4.818z M346.356,14.601c-1.381,0-2.504-1.12-2.504-2.5
	s1.123-2.502,2.504-2.502c1.379,0,2.498,1.122,2.498,2.502S347.735,14.601,346.356,14.601z"/>
<path fill="#EEAB1F" d="M346.356,9.599c-1.381,0-2.504,1.122-2.504,2.502s1.123,2.5,2.504,2.5c1.379,0,2.498-1.12,2.498-2.5
	S347.735,9.599,346.356,9.599z"/>
<path fill="#161616" d="M363.485,4.818c-4.021,0-7.283,3.26-7.283,7.282c0,4.021,3.262,7.28,7.283,7.28s7.283-3.26,7.283-7.28
	C370.768,8.078,367.506,4.818,363.485,4.818z M363.481,14.598c-1.381,0-2.5-1.118-2.5-2.497s1.119-2.499,2.5-2.499
	c1.377,0,2.5,1.12,2.5,2.499S364.858,14.598,363.481,14.598z"/>
<path fill="#EEAB1F" d="M363.481,9.602c-1.381,0-2.5,1.12-2.5,2.499s1.119,2.497,2.5,2.497c1.377,0,2.5-1.118,2.5-2.497
	S364.858,9.602,363.481,9.602z"/>
<path fill="#161616" d="M380.61,4.818c-4.021,0-7.283,3.26-7.283,7.282c0,4.021,3.262,7.28,7.283,7.28s7.283-3.26,7.283-7.28
	C387.893,8.078,384.631,4.818,380.61,4.818z M380.606,14.601c-1.383,0-2.498-1.12-2.498-2.5c0-1.381,1.115-2.502,2.498-2.502
	s2.502,1.121,2.502,2.502C383.108,13.48,381.989,14.601,380.606,14.601z"/>
<path fill="#EEAB1F" d="M380.606,9.599c-1.383,0-2.498,1.121-2.498,2.502c0,1.38,1.115,2.5,2.498,2.5s2.502-1.12,2.502-2.5
	C383.108,10.72,381.989,9.599,380.606,9.599z"/>
<text transform="matrix(-4.371139e-008 -1 1 -4.371139e-008 74.8491 123)" fill="#FFFFFF" font-family="sans-serif" font-weight="bold" font-size="12">GPIO 2 (SDA)</text>
<text transform="matrix(-4.371139e-008 -1 1 -4.371139e-008 91.9751 121)" fill="#FFFFFF" font-family="sans-serif" font-weight="bold" font-size="12">GPIO 3 (SCL)</text>
</svg>
